<?xml version="1.0" encoding="utf-8"?>
<!-- Generator: Adobe Illustrator 23.0.4, SVG Export Plug-In . SVG Version: 6.00 Build 0)  -->
<svg version="1.1" id="Layer_1" xmlns="http://www.w3.org/2000/svg" xmlns:xlink="http://www.w3.org/1999/xlink" x="0px" y="0px"
	 viewBox="0 0 436.6 359.3" style="enable-background:new 0 0 436.6 359.3;" xml:space="preserve">
<style type="text/css">
	.st0{fill:#F28A2B;}
	.st1{fill:#F28A2B;stroke:#EE7D35;stroke-width:0.6156;}
</style>
<path class="st0" d="M248,16.6c0,0,126.1-29.6,126.9,53c0,0,10.4,80-152.1,155.6c0,0-146,70.4-58.2-66.9c0,0-200.8,199.9,41.7,154.7
	c0,0,204.3-59.1,230.4-179.9c0,0-45.2,106.1-174.7,128.7c0,0,212.1-81.7,161.7-213.9C423.6,49.6,397.5-34.7,248,16.6z"/>
<path class="st1" d="M102.8,27.9"/>
<path class="st0" d="M240.2,105.2C57.6,167.8,61.1,286.9,61.1,286.9c0,86.1,87.8,65.2,87.8,65.2C38.5,383.4,22,302.6,22,302.6
	c-30.4-147.8,146-206,146-206C-5.8,131.3,2,287.8,2,287.8C-24.1,100.9,216.7,39.2,216.7,39.2c28.7-7,61.7-8.7,61.7-8.7
	c26.1-2.6,40,12.2,40.9,28.7c0.9,16.5-16.5,33.9-34.8,34.8C284.5,94.8,262.8,97.4,240.2,105.2z"/>
</svg>
