<?xml version="1.0" encoding="utf-8"?>
<!-- Generator: Adobe Illustrator 23.0.4, SVG Export Plug-In . SVG Version: 6.00 Build 0)  -->
<svg version="1.1" id="Layer_1" xmlns="http://www.w3.org/2000/svg" xmlns:xlink="http://www.w3.org/1999/xlink" x="0px" y="0px"
	 viewBox="0 0 537 41.3" style="enable-background:new 0 0 537 41.3;" xml:space="preserve">
<style type="text/css">
	.st0{fill:#004C97;}
	.st1{fill:none;stroke:#EE7D35;stroke-width:0.6156;}
	.st2{fill:#F68D2E;}
</style>
<g>
	<g>
		<g>
			<path class="st0" d="M58.8,30.9V4.4h6.1v10.2h19.3V4.4h6.2v26.5h-6.2V19.5H64.9v11.4H58.8z"/>
			<path class="st0" d="M94,30.9l15-26.5h6l15.2,26.5h-6.9l-3.2-5.8h-16.8l-3.1,5.8H94z M105.9,20.3h11.6l-5.7-10.8L105.9,20.3z"/>
			<path class="st0" d="M139.2,30.9L123.9,4.4h7l10.7,19.1l10.2-19.1h6.2l-14.6,26.5H139.2z"/>
			<path class="st0" d="M177.5,9.2v21.7h-6.2V9.2h-12.2V4.4h30.5v4.7H177.5z"/>
			<path class="st0" d="M194.5,30.9V4.4h27.1V9h-21v5.8h12.2v4.5h-12.2v6.6h21.2v5H194.5z"/>
			<path class="st0" d="M250,9.2h-16.6v16.8H250v-5.7l6.2,0v4.4c0,2.5-0.5,4.1-1.4,5c-0.9,0.9-2.6,1.3-5.2,1.3h-15.8
				c-2.5,0-4.3-0.4-5.2-1.3c-0.9-0.9-1.4-2.5-1.4-5v-14c0-2.5,0.5-4.1,1.4-5c0.9-0.9,2.6-1.3,5.2-1.3h15.8c2.5,0,4.2,0.4,5.2,1.3
				c0.9,0.9,1.4,2.5,1.4,5v3.5l-6.2,0V9.2z"/>
			<path class="st0" d="M263.5,30.9V4.4h6.2v10.2h19.3V4.4h6.2v26.5h-6.2V19.5h-19.3v11.4H263.5z"/>
		</g>
	</g>
	<path class="st0" d="M28.5,1.9c0,0,14.5-3.4,14.6,6.1c0,0,1.2,9.2-17.5,17.9c0,0-16.8,8.1-6.7-7.7c0,0-23.1,23,4.8,17.8
		c0,0,23.5-6.8,26.5-20.7c0,0-5.2,12.2-20.1,14.8c0,0,24.4-9.4,18.6-24.6C48.7,5.7,45.7-4,28.5,1.9z"/>
	<path class="st1" d="M11.8,3.2"/>
	<path class="st2" d="M27.6,12.1C6.6,19.3,7,33,7,33c0,9.9,10.1,7.5,10.1,7.5C4.4,44.1,2.5,34.8,2.5,34.8
		c-3.5-17,16.8-23.7,16.8-23.7c-20,4-19.1,22-19.1,22c-3-21.5,24.7-28.6,24.7-28.6C28.2,3.7,32,3.5,32,3.5c3-0.3,4.6,1.4,4.7,3.3
		c0.1,1.9-1.9,3.9-4,4C32.7,10.9,30.2,11.2,27.6,12.1z"/>
	<g>
		<path class="st2" d="M314.6,30.6V10.7h23v3.1h-19.7V19h19.2v3h-19.2v5.4h19.9v3.1H314.6z"/>
		<path class="st2" d="M352.4,30.6h-3.8l-10.2-14h3.5l8.7,11.9l8.6-11.9h3.3L352.4,30.6z"/>
		<path class="st2" d="M374.3,30.9c-7.8,0-11.9-2.8-11.9-7.5c0-4.7,4.8-7.2,11.8-7.2c7,0,11.7,2.5,11.7,8.5h-20.3
			c0.4,2.2,3.4,3.8,8.9,3.8c4.7,0,6.8-1,7.7-2.2h3.6C384.8,28.4,381.8,30.9,374.3,30.9z M374.2,18.7c-5.3,0-8.3,1.7-8.5,3.7h17
			C382.6,20.7,379.9,18.7,374.2,18.7z"/>
		<path class="st2" d="M406.6,30.6c-0.2,0-0.3-0.9-0.3-7c0-3.1-1.8-4.6-6.3-4.6c-4,0-7.6,1.7-7.6,4.6v7h-3.2v-14h3.1V20
			c1.1-2.5,5.1-3.8,8.8-3.8c6.3,0,8.4,2.9,8.4,6.8c0,7.2,0.1,7.4,0.2,7.6H406.6z"/>
		<path class="st2" d="M419.3,19.5c0,0,0,5.7,0,5.8c0,2.3,1.1,2.8,3.4,2.8c0.9,0,3.1-0.2,3.7-0.3v2.6c-0.8,0.2-2.8,0.5-4.7,0.5
			c-3.5,0-5.7-1.1-5.7-4.9c0-0.2,0-6.5,0-6.5h-4.4v-2.7h4.4c0.1-0.9,0.1-3.7,0.1-3.7l3.1-0.1c0,0,0,3,0,3.8h7.4v2.7H419.3z"/>
		<path class="st2" d="M439.6,30.9c-7.1,0-9.9-1.1-10.8-3.7c-0.1-0.3-0.2-0.7-0.2-1h3.1c0,0.2,0.1,0.6,0.3,0.8
			c0.7,0.9,2.7,1.3,7.7,1.3c6.1,0,7.3-0.8,7.3-1.9c0-1.2-1-1.6-6.3-1.8c-0.7,0-3-0.1-3.9-0.2c-5.7-0.3-7.7-1.7-7.7-4.1
			c0-2.7,3.2-4.3,9.6-4.3c6.1,0,9.2,0.9,10.3,3.5c0.2,0.4,0.3,0.9,0.3,1.1H446c0-0.2-0.1-0.4-0.2-0.6c-0.6-0.8-2.4-1.3-6.9-1.3
			c-5.9,0-6.7,0.7-6.7,1.6c0,1,0.8,1.3,5.7,1.6c0.7,0,3.5,0.2,4.1,0.2c6.1,0.3,8.1,1.5,8.1,4.2C450,29.3,447.1,30.9,439.6,30.9z"/>
		<path class="st0" d="M475.9,30.6v-8.4h-17.8v8.4h-3.4V10.7h3.4v8.2h17.8v-8.2h3.4v19.9H475.9z"/>
		<path class="st0" d="M495.2,30.9c-7.6,0-12.5-3-12.5-9.2c0-0.6,0-11,0-11h3.4c0,0,0,11.2,0,11.4c0,3.4,3,5.7,9.3,5.7
			c5.3,0,8.9-2.1,8.9-5.7c0-0.2,0-11.4,0-11.4h3.4c0,0,0,10.9,0,11.4C507.7,27.8,503.2,30.9,495.2,30.9z"/>
		<path class="st0" d="M529.2,30.6h-18.1V10.7h17c2.6,0,4.4,0.6,5.4,1.6c0.9,0.9,1.3,2.1,1.3,3.4c0,1.1-0.3,2.1-0.8,2.9
			c-0.5,0.7-1.2,1.3-2.2,1.4c1.7,0.1,3.2,0.7,4.1,1.6c0.8,0.8,1.2,2.1,1.2,3.3c0,1.2-0.3,2.5-0.9,3.4
			C535,29.8,532.6,30.6,529.2,30.6z M530.5,14.5c-0.7-0.6-1.8-0.8-3.2-0.8h-12.9V19h13.5c1.2,0,2.3-0.3,2.8-0.9
			c0.4-0.4,0.6-1.1,0.6-1.7C531.3,15.7,531.1,15,530.5,14.5z M533.5,24.6c0-0.6-0.2-1.1-0.6-1.6c-0.7-0.7-1.7-1-3.7-1h-14.7v5.6H529
			c2.2,0,3.4-0.5,4.1-1.4C533.4,25.8,533.5,25.2,533.5,24.6z"/>
	</g>
</g>
</svg>
