<?xml version="1.0" encoding="UTF-8" standalone="no"?>
<svg
   xmlns:dc="http://purl.org/dc/elements/1.1/"
   xmlns:cc="http://creativecommons.org/ns#"
   xmlns:rdf="http://www.w3.org/1999/02/22-rdf-syntax-ns#"
   xmlns:svg="http://www.w3.org/2000/svg"
   xmlns="http://www.w3.org/2000/svg"
   viewBox="0 0 725.34668 101.53333"
   height="101.53333"
   width="725.34668"
   xml:space="preserve"
   id="svg2"
   version="1.1"><metadata
     id="metadata8"><rdf:RDF><cc:Work
         rdf:about=""><dc:format>image/svg+xml</dc:format><dc:type
           rdf:resource="http://purl.org/dc/dcmitype/StillImage" /></cc:Work></rdf:RDF></metadata><defs
     id="defs6" /><g
     transform="matrix(1.3333333,0,0,-1.3333333,0,101.53333)"
     id="g10"><g
       transform="scale(0.1)"
       id="g12"><path
         id="path14"
         style="fill:#1d50a0;fill-opacity:1;fill-rule:nonzero;stroke:none"
         d="m 1083.6,191.625 v 487.918 h 113.35 V 490.621 h 354.85 v 188.922 h 115 V 191.625 h -115 V 401.906 H 1196.95 V 191.625 H 1083.6" /><path
         id="path16"
         style="fill:#1d50a0;fill-opacity:1;fill-rule:nonzero;stroke:none"
         d="m 1951.8,387.121 h 213.85 l -105.04,198.141 z m -218.57,-195.496 276.64,487.918 h 109.91 l 280.43,-487.918 h -127.9 l -58.73,106.785 h -309.8 l -56.86,-106.785 h -113.69" /><path
         id="path18"
         style="fill:#1d50a0;fill-opacity:1;fill-rule:nonzero;stroke:none"
         d="m 2564.88,191.625 -281.94,487.918 h 129.62 l 197.75,-352.586 188.3,352.586 h 113.54 L 2643.43,191.625 h -78.55" /><path
         id="path20"
         style="fill:#1d50a0;fill-opacity:1;fill-rule:nonzero;stroke:none"
         d="M 3272.33,592.473 V 191.625 h -113.36 v 400.848 h -225.06 v 87.07 h 563.02 v -87.07 h -224.6" /><path
         id="path22"
         style="fill:#1d50a0;fill-opacity:1;fill-rule:nonzero;stroke:none"
         d="m 3584.41,191.625 v 487.918 h 499.63 V 595.762 H 3697.77 V 488.977 h 225.4 v -83.786 h -225.4 V 283.625 h 391.02 v -92 h -504.38" /><path
         id="path24"
         style="fill:#1d50a0;fill-opacity:1;fill-rule:nonzero;stroke:none"
         d="M 4607.97,592.473 H 4302.41 V 283.625 h 305.56 v 105.039 l 113.36,0.395 V 307.27 c 0,-45.489 -8.5,-76.133 -25.49,-91.946 -16.99,-15.82 -48.75,-23.699 -95.32,-23.699 h -290.67 c -46.56,0 -78.34,7.879 -95.34,23.641 -16.99,15.761 -25.46,46.339 -25.46,91.718 v 257.204 c 0,45.386 8.47,75.957 25.46,91.718 17,15.758 48.78,23.637 95.34,23.637 h 290.67 c 46.57,0 78.33,-7.906 95.32,-23.664 16.99,-15.758 25.49,-46.359 25.49,-91.793 v -64.172 l -113.36,-0.156 v 92.715" /><path
         id="path26"
         style="fill:#1d50a0;fill-opacity:1;fill-rule:nonzero;stroke:none"
         d="m 4856.93,191.625 v 487.918 h 113.36 V 490.621 h 354.84 v 188.922 h 115 V 191.625 h -115 V 401.906 H 4970.29 V 191.625 h -113.36" /><path
         id="path28"
         style="fill:#1d50a0;fill-opacity:1;fill-rule:nonzero;stroke:none"
         d="m 525.051,726.008 c 0,0 266.769,62.902 269.238,-113.113 0,0 22.383,-169.055 -322.523,-329.161 0,0 -310.039,-149.875 -122.926,141.543 0,0 -425.8088,-423.81997 87.844,-328.5348 0,0 433.652,126.1918 487.746,380.9648 0,0 -95.282,-225.742 -370.004,-273.437 0,0 449.954,173.226 343.722,453.05 0,0 -55.859,177.981 -373.097,68.688" /><path
         id="path30"
         style="fill:#f68317;fill-opacity:1;fill-rule:nonzero;stroke:none"
         d="M 509.27,539.348 C 122.465,406.316 129.422,153.91 129.422,153.91 129.223,-28.2773 316.039,15.9609 316.039,15.9609 80.6992,-52.0859 46.1211,119.484 46.1211,119.484 -18.5625,432.492 356.098,555.789 356.098,555.789 -11.9766,481.965 4.28516,149.621 4.28516,149.621 -51.6914,545.492 459.332,676.996 459.332,676.996 c 61.102,15.957 130.352,19.68 130.352,19.68 54.742,5.34 84.336,-25.285 86.843,-60.692 2.512,-35.414 -34.507,-71.734 -74.39,-74.554 0,0 -45.739,-5.883 -92.867,-22.082" /></g></g></svg>