<?xml version="1.0" encoding="utf-8"?>
<!-- Generator: Adobe Illustrator 23.0.4, SVG Export Plug-In . SVG Version: 6.00 Build 0)  -->
<svg version="1.1" id="Layer_1" xmlns="http://www.w3.org/2000/svg" xmlns:xlink="http://www.w3.org/1999/xlink" x="0px" y="0px"
	 viewBox="0 0 545.8 102.1" style="enable-background:new 0 0 545.8 102.1;" xml:space="preserve">
<style type="text/css">
	.st0{fill:#FFFFFF;}
	.st1{fill:#FFFFFF;stroke:#EE7D35;stroke-width:0.6156;}
</style>
<g>
	<g>
		<path class="st0" d="M108.4,57V8.2h11.3v18.9h35.5V8.2h11.5V57h-11.5V36h-35.5v21H108.4z"/>
		<path class="st0" d="M173.3,57L201,8.2h11L240,57h-12.8l-5.9-10.7h-31L184.7,57H173.3z M195.2,37.4h21.4l-10.5-19.8L195.2,37.4z"
			/>
		<path class="st0" d="M256.5,57L228.3,8.2h13L261,43.5l18.8-35.3h11.4L264.3,57H256.5z"/>
		<path class="st0" d="M327.2,16.9V57h-11.3V16.9h-22.5V8.2h56.3v8.7H327.2z"/>
		<path class="st0" d="M358.4,57V8.2h50v8.4h-38.6v10.7h22.5v8.4h-22.5v12.2h39.1V57H358.4z"/>
		<path class="st0" d="M460.8,16.9h-30.6v30.9h30.6V37.3l11.3,0v8.2c0,4.5-0.8,7.6-2.5,9.2c-1.7,1.6-4.9,2.4-9.5,2.4H431
			c-4.7,0-7.8-0.8-9.5-2.4c-1.7-1.6-2.5-4.6-2.5-9.2V19.7c0-4.5,0.8-7.6,2.5-9.2c1.7-1.6,4.9-2.4,9.5-2.4h29.1
			c4.7,0,7.8,0.8,9.5,2.4c1.7,1.6,2.5,4.6,2.5,9.2v6.4l-11.3,0V16.9z"/>
		<path class="st0" d="M485.7,57V8.2H497v18.9h35.5V8.2H544V57h-11.5V36H497v21H485.7z"/>
	</g>
</g>
<path class="st0" d="M52.5,3.5c0,0,26.7-6.3,26.9,11.3c0,0,2.2,16.9-32.3,32.9c0,0-31,15-12.3-14.2c0,0-42.6,42.4,8.8,32.9
	c0,0,43.4-12.6,48.8-38.1c0,0-9.5,22.6-37,27.3c0,0,45-17.3,34.4-45.3C89.8,10.4,84.2-7.4,52.5,3.5z"/>
<path class="st1" d="M21.8,6"/>
<path class="st0" d="M50.9,22.2c-38.7,13.3-38,38.5-38,38.5c0,18.2,18.7,13.8,18.7,13.8c-23.5,6.8-27-10.4-27-10.4
	c-6.5-31.3,31-43.6,31-43.6C-1.2,28,0.4,61.2,0.4,61.2C-5.2,21.6,45.9,8.5,45.9,8.5c6.1-1.6,13-2,13-2c5.5-0.5,8.4,2.5,8.7,6.1
	c0.3,3.5-3.5,7.2-7.4,7.5C60.2,20,55.6,20.6,50.9,22.2z"/>
<g>
	<path class="st0" d="M223.8,101.6V72.9h33.3v4.5h-28.5v7.5h27.8v4.4h-27.8v7.8h28.8v4.5H223.8z"/>
	<path class="st0" d="M278.6,101.6h-5.6l-14.8-20.3h5.1L276,98.6l12.4-17.2h4.8L278.6,101.6z"/>
	<path class="st0" d="M310.3,102.1c-11.3,0-17.2-4-17.2-10.9c0-6.8,7-10.5,17.1-10.5c10.1,0,16.9,3.6,16.9,12.3h-29.4
		c0.6,3.2,4.9,5.6,12.8,5.6c6.8,0,9.8-1.5,11.1-3.2h5.2C325.5,98.5,321.1,102.1,310.3,102.1z M310.1,84.4c-7.7,0-12,2.4-12.4,5.4
		h24.6C322.3,87.3,318.4,84.4,310.1,84.4z"/>
	<path class="st0" d="M357,101.6c-0.3,0-0.4-1.3-0.4-10.1c0-4.4-2.7-6.6-9.1-6.6c-5.8,0-11,2.4-11,6.6v10.1H332V81.4h4.5v4.9
		c1.7-3.6,7.4-5.4,12.7-5.4c9.2,0,12.2,4.2,12.2,9.8c0,10.4,0.1,10.7,0.3,11H357z"/>
	<path class="st0" d="M375.5,85.6c0,0,0,8.2,0,8.4c0,3.3,1.5,4.1,4.9,4.1c1.4,0,4.4-0.2,5.4-0.4v3.7c-1.1,0.3-4,0.7-6.8,0.7
		c-5.1,0-8.2-1.6-8.2-7.1c0-0.3,0-9.4,0-9.4h-6.3v-3.9h6.3c0.1-1.3,0.1-5.3,0.1-5.3l4.5-0.1c0,0,0,4.4,0,5.4H386v3.9H375.5z"/>
	<path class="st0" d="M404.8,102.1c-10.3,0-14.4-1.5-15.6-5.4c-0.1-0.4-0.3-1-0.3-1.4h4.5c0,0.3,0.1,0.8,0.4,1.1c1,1.3,4,2,11.1,2
		c8.9,0,10.5-1.2,10.5-2.7c0-1.8-1.4-2.3-9.2-2.6c-1,0-4.3-0.1-5.6-0.2c-8.3-0.4-11.2-2.4-11.2-5.9c0-4,4.6-6.2,13.8-6.2
		c8.8,0,13.3,1.4,14.9,5.1c0.2,0.6,0.4,1.3,0.4,1.5H414c0-0.2-0.1-0.6-0.3-0.8c-0.8-1.1-3.5-2-10.1-2c-8.5,0-9.8,1-9.8,2.4
		c0,1.4,1.2,1.9,8.3,2.3c1,0,5,0.3,6,0.3c8.8,0.4,11.7,2.2,11.7,6.1C419.8,99.8,415.7,102.1,404.8,102.1z"/>
	<path class="st0" d="M457.4,101.6V89.5h-25.8v12.2h-4.9V72.9h4.9v11.8h25.8V72.9h4.9v28.8H457.4z"/>
	<path class="st0" d="M485.3,102c-11,0-18.1-4.3-18.1-13.3c0-0.9,0-15.9,0-15.9h4.9c0,0,0,16.3,0,16.5c0,4.9,4.3,8.3,13.4,8.3
		c7.7,0,12.9-3,12.9-8.3c0-0.2,0-16.5,0-16.5h4.9c0,0,0,15.8,0,16.6C503.3,97.7,496.8,102,485.3,102z"/>
	<path class="st0" d="M534.5,101.6h-26.2V72.9h24.6c3.7,0,6.4,0.9,7.9,2.4c1.3,1.3,1.8,3,1.8,4.9c0,1.5-0.4,3.1-1.2,4.2
		c-0.7,1-1.8,1.8-3.2,2.1c2.5,0.2,4.7,1.1,5.9,2.4c1.1,1.2,1.7,3.1,1.7,4.8c0,1.7-0.4,3.6-1.3,4.9
		C542.9,100.5,539.5,101.6,534.5,101.6z M536.4,78.4c-1-0.9-2.6-1.2-4.6-1.2h-18.7v7.7h19.5c1.7,0,3.3-0.4,4.1-1.4
		c0.6-0.6,0.8-1.6,0.8-2.5C537.5,80.1,537.2,79.1,536.4,78.4z M540.7,93c0-0.9-0.3-1.6-0.9-2.3c-1-1-2.5-1.5-5.4-1.5h-21.3v8.2h21.1
		c3.2,0,4.9-0.7,5.9-2.1C540.6,94.7,540.7,93.9,540.7,93z"/>
</g>
</svg>
