<?xml version="1.0" encoding="utf-8"?>
<!-- Generator: Adobe Illustrator 24.0.3, SVG Export Plug-In . SVG Version: 6.00 Build 0)  -->
<svg version="1.1" id="Layer_1" xmlns="http://www.w3.org/2000/svg" xmlns:xlink="http://www.w3.org/1999/xlink" x="0px" y="0px"
	 viewBox="0 0 414 736" style="enable-background:new 0 0 414 736;" xml:space="preserve">
<style type="text/css">
	.st0{opacity:0.5;clip-path:url(#SVGID_2_);fill:#F2F2F2;enable-background:new    ;}
</style>
<g>
	<defs>
		<rect id="SVGID_1_" width="414" height="736"/>
	</defs>
	<clipPath id="SVGID_2_">
		<use xlink:href="#SVGID_1_"  style="overflow:visible;"/>
	</clipPath>
	<path class="st0" d="M275.1,62.4c0,0,284-66.7,285.8,119.4c0,0,23.4,180.2-342.5,350.4c0,0-328.8,158.5-131.1-150.7
		c0,0-452.2,450.2,93.9,348.4c0,0,460.1-133.1,518.9-405.1c0,0-101.8,238.9-393.4,289.8c0,0,477.6-184,364.1-481.7
		C670.5,136.7,611.7-53.2,275.1,62.4z"/>
	<path class="st0" d="M257.5,261.9c-411.2,141-403.3,409.2-403.3,409.2c0,193.9,197.7,146.8,197.7,146.8
		c-248.6,70.5-285.8-111.5-285.8-111.5C-302.3,373.6,94.9,242.5,94.9,242.5c-391.4,78.1-373.8,430.6-373.8,430.6
		c-58.8-420.9,483.5-559.8,483.5-559.8c64.6-15.8,138.9-19.6,138.9-19.6c58.8-5.9,90.1,27.5,92.1,64.6s-37.2,76.3-78.4,78.4
		C357.3,238.5,308.4,244.3,257.5,261.9z"/>
</g>
</svg>
