<?xml version="1.0" encoding="utf-8"?>
<!-- Generator: Adobe Illustrator 23.0.4, SVG Export Plug-In . SVG Version: 6.00 Build 0)  -->
<svg version="1.1" id="Layer_1" xmlns="http://www.w3.org/2000/svg" xmlns:xlink="http://www.w3.org/1999/xlink" x="0px" y="0px"
	 viewBox="0 0 30 32" style="enable-background:new 0 0 30 32;" xml:space="preserve">
<style type="text/css">
	.st0{fill:#FFFFFF;}
	.st1{fill:none;stroke:#FFFFFF;stroke-width:2;stroke-linecap:square;stroke-miterlimit:10;}
	.st2{fill:none;stroke:#FFFFFF;stroke-width:2;stroke-miterlimit:10;}
</style>
<g>
	<circle class="st0" cx="10" cy="26" r="1.5"/>
	<circle class="st0" cx="20" cy="26" r="1.5"/>
	<line class="st1" x1="15" y1="26" x2="15" y2="31"/>
	<path class="st2" d="M11.8,19.1l-8.7,4.8c-1.3,0.7-2.1,2-2.1,3.5V31h28v-3.6c0-1.5-0.8-2.8-2.1-3.5l-8.7-4.8"/>
	<path class="st1" d="M23,9c0,6-3.6,11-8,11S7,15,7,9"/>
	<path class="st1" d="M7,9V2c2.6-0.7,5.3-1.1,8-1c2.7-0.1,5.4,0.3,8,1v7"/>
	<path class="st2" d="M7,9c2.6-0.7,5.3-1.1,8-1c2.7-0.1,5.4,0.3,8,1"/>
</g>
</svg>
