<?xml version="1.0" encoding="utf-8"?>
<!-- Generator: Adobe Illustrator 23.0.4, SVG Export Plug-In . SVG Version: 6.00 Build 0)  -->
<svg version="1.1" id="Layer_1" xmlns="http://www.w3.org/2000/svg" xmlns:xlink="http://www.w3.org/1999/xlink" x="0px" y="0px"
	 viewBox="0 0 32 32" style="enable-background:new 0 0 32 32;" xml:space="preserve">
<style type="text/css">
	.st0{fill:none;stroke:#FFFFFF;stroke-width:2;stroke-miterlimit:10;}
	.st1{fill:none;stroke:#FFFFFF;stroke-width:2;stroke-linecap:square;stroke-miterlimit:10;}
	.st2{fill:#FFFFFF;}
</style>
<g>
	<polyline class="st0" points="20,1 20,9 28,9 	"/>
	<polyline class="st1" points="28,13 28,9 20,1 4,1 4,13 	"/>
	<polyline class="st1" points="4,27 4,31 28,31 28,27 	"/>
	<path class="st2" d="M13.1,19.1c0,0.6-0.2,1.1-0.6,1.5s-0.9,0.5-1.6,0.5h-0.4V23H9v-5.7h2c0.7,0,1.3,0.2,1.6,0.5
		S13.1,18.5,13.1,19.1z M10.5,19.8h0.3c0.2,0,0.4-0.1,0.6-0.2s0.2-0.3,0.2-0.5c0-0.4-0.2-0.6-0.6-0.6h-0.4V19.8z"/>
	<path class="st2" d="M18.9,20c0,1-0.3,1.7-0.8,2.2S16.9,23,15.9,23h-1.8v-5.7h2c0.9,0,1.6,0.2,2.1,0.7S18.9,19.1,18.9,20z
		 M17.3,20.1c0-0.5-0.1-0.9-0.3-1.2s-0.5-0.4-0.9-0.4h-0.4v3.2h0.3c0.5,0,0.8-0.1,1-0.4S17.3,20.6,17.3,20.1z"/>
	<path class="st2" d="M21.4,23h-1.5v-5.7h3.4v1.2h-1.9v1.1h1.7v1.2h-1.7V23z"/>
	<rect x="1" y="13" class="st1" width="30" height="14"/>
</g>
</svg>
