<?xml version="1.0" encoding="utf-8"?>
<!-- Generator: Adobe Illustrator 23.0.4, SVG Export Plug-In . SVG Version: 6.00 Build 0)  -->
<svg version="1.1" id="Layer_1" xmlns="http://www.w3.org/2000/svg" xmlns:xlink="http://www.w3.org/1999/xlink" x="0px" y="0px"
	 viewBox="0 0 32 30" style="enable-background:new 0 0 32 30;" xml:space="preserve">
<style type="text/css">
	.st0{fill:none;stroke:#FFFFFF;stroke-width:2;stroke-linecap:square;stroke-miterlimit:10;}
	.st1{fill:none;stroke:#FFFFFF;stroke-width:2;stroke-miterlimit:10;}
	.st2{fill:#FFFFFF;}
</style>
<g>
	<polyline class="st0" points="12,5 12,1 20,1 20,5 	"/>
	<path class="st1" d="M28,16l-1.6-8.5C26.2,6,24.9,5,23.5,5h-15c-1.4,0-2.7,1-3,2.5L4,16"/>
	<polyline class="st0" points="8,25 8,29 3,29 3,25 	"/>
	<polyline class="st0" points="29,25 29,29 24,29 24,25 	"/>
	<path class="st0" d="M31,25H1v-5.4c0-1,0.5-1.9,1.3-2.5L4,16h24l1.7,1.1c0.8,0.6,1.3,1.5,1.3,2.5V25z"/>
	<circle class="st2" cx="6.5" cy="20.5" r="1.5"/>
	<circle class="st2" cx="25.5" cy="20.5" r="1.5"/>
</g>
</svg>
