<?xml version="1.0" encoding="utf-8"?>
<!-- Generator: Adobe Illustrator 23.0.4, SVG Export Plug-In . SVG Version: 6.00 Build 0)  -->
<svg version="1.1" id="Layer_1" xmlns="http://www.w3.org/2000/svg" xmlns:xlink="http://www.w3.org/1999/xlink" x="0px" y="0px"
	 viewBox="0 0 46 44" style="enable-background:new 0 0 46 44;" xml:space="preserve">
<style type="text/css">
	.st0{fill:#FFFFFF;}
</style>
<g>
	<path class="st0" d="M1,44c-0.2,0-0.4-0.1-0.6-0.2C0.1,43.6,0,43.3,0,43V13c0-0.5,0.3-0.9,0.8-1l6-1.5c0.5-0.1,1.1,0.2,1.2,0.7
		c0.1,0.5-0.2,1.1-0.7,1.2L2,13.8v27.9L16.8,38c0.2,0,0.4,0,0.6,0L29,42l15-3.7V10.3l-4.8,1.2c-0.5,0.1-1.1-0.2-1.2-0.7
		c-0.1-0.5,0.2-1.1,0.7-1.2l6-1.5c0.3-0.1,0.6,0,0.9,0.2C45.9,8.4,46,8.7,46,9v30c0,0.5-0.3,0.9-0.8,1l-16,4c-0.2,0-0.4,0-0.6,0
		L17,40L1.2,44C1.2,44,1.1,44,1,44z"/>
	<path class="st0" d="M23,0c-5.4,0-11,4.1-11,11c0,6.5,9.9,16.5,10.3,17c0.2,0.2,0.4,0.3,0.7,0.3s0.5-0.1,0.7-0.3
		C24.1,27.5,34,17.5,34,11C34,4.1,28.4,0,23,0z M23,15c-2.2,0-4-1.8-4-4s1.8-4,4-4s4,1.8,4,4S25.2,15,23,15z"/>
</g>
</svg>
