<?xml version="1.0" encoding="utf-8"?>
<!-- Generator: Adobe Illustrator 23.0.4, SVG Export Plug-In . SVG Version: 6.00 Build 0)  -->
<svg version="1.1" id="Layer_1" xmlns="http://www.w3.org/2000/svg" xmlns:xlink="http://www.w3.org/1999/xlink" x="0px" y="0px"
	 viewBox="0 0 62 59" style="enable-background:new 0 0 62 59;" xml:space="preserve">
<style type="text/css">
	.st0{fill:#FFFFFF;}
</style>
<g>
	<path class="st0" d="M62,22.4c-0.1-0.4-0.4-0.6-0.8-0.7l-20.2-2.9l-9-18.3C31.6,0,31-0.1,30.5,0.1c-0.2,0.1-0.3,0.2-0.4,0.4
		l-9,18.3L0.9,21.8c-0.5,0.1-0.9,0.6-0.8,1.1c0,0.2,0.1,0.4,0.3,0.6l14.6,14.3l-3.5,20.1c-0.1,0.5,0.3,1.1,0.8,1.2
		c0.2,0,0.4,0,0.6-0.1L31,49.4l18.1,9.5c0.5,0.3,1.1,0.1,1.3-0.4c0.1-0.2,0.1-0.4,0.1-0.6l-3.5-20.1l14.6-14.3
		C62,23.2,62.1,22.8,62,22.4z"/>
</g>
</svg>
